<svg width="1012" height="552" viewBox="0 0 1012 552" fill="none" xmlns="http://www.w3.org/2000/svg">
<path d="M775.143 142.763C808.058 100.444 861.462 75.3395 914 75.3395C928 73.5 946.912 83.6003 954.903 84.5405C959.584 85.0912 973.221 91.1909 976.65 95.0012C982.219 101.189 980.995 118.281 985.184 126.659C991.526 139.343 982.246 173.001 974.173 183.092C968.401 190.307 965.161 200.857 959.858 208.969C954.226 217.582 941.245 230.366 940.038 240.626C939.142 248.24 932.605 253.694 932.605 262.924C932.605 270.275 931.533 280.296 937.009 285.773C953.398 302.161 977.519 307.838 994.544 324.863C1006.53 336.85 1011.89 344.114 1011.89 362.026C1011.89 381.66 1010.77 395.02 998.948 411.577C991.191 422.437 985.162 433.589 977.201 444.336C966.329 459.012 938.497 468.279 921.456 470.9C894.476 475.051 863.33 471.038 836.118 471.038C806.477 471.038 792.152 463.709 775.143 438.968C766.894 426.969 758.123 415.231 750.367 403.043C743.822 392.757 749.266 385.535 749.266 374.276C749.266 362.368 752.031 352.118 754.084 340.829C756.277 328.768 759.229 314.428 762.893 302.702C769.463 281.677 766.609 257.498 766.609 235.533C766.609 208.872 757.87 164.971 775.143 142.763Z" fill="#A6B3B8" fill-opacity="0.5"/>
<path d="M480.707 2.73337C521.179 -1.76347 564.357 2.58951 605.003 2.58951C623.713 2.58951 639.765 0 658.088 0C686.537 0 700.668 26.7778 725.272 33.8075C734.398 36.4149 746.356 47.827 755.195 53.2288C772.028 63.5155 774.257 75.3074 783.68 91.2083C789.193 100.512 790.127 113.976 792.743 124.44C800.995 157.449 812.164 193.785 812.164 227.877C812.164 264.02 779.66 287.798 767.136 319.805C761.954 333.047 760.788 350.929 764.978 364.546C770.735 383.257 770.734 401.593 770.732 421.027L770.732 421.946C770.732 433.217 756.752 446.224 751.311 455.898C743.269 470.194 737.796 492.718 726.135 504.379C703.021 527.493 680.317 551.566 645.86 551.566C621.77 551.566 597.434 552.164 573.929 545.811C555.361 540.793 555.653 532.614 544.15 519.341C519.18 490.529 482.721 475.895 456.107 449.28C435.922 429.095 418.559 396.762 418.559 367.71C418.559 333.062 421.148 298.347 421.148 264.13C421.148 238.575 435.299 217.654 425.176 191.624C419.5 177.026 410.732 159.619 400.432 147.602C393.21 139.177 388.115 128.897 380.867 120.268C371.957 109.661 359 97.5596 359 83.0082C359 44.6778 379.1 39.5804 410.79 25.3197C431.666 15.9257 457.928 5.26436 480.707 2.73337Z" fill="#CAC1BB" fill-opacity="0.5"/>
<path d="M82.3559 92.1769C102.269 78.5109 116.874 69.5012 136.366 55.578C151.341 48.0906 168.441 50.0492 185.934 46.1618C209.114 41.0107 247.533 37.4357 270.68 46.6948C298.352 57.7633 329.451 62.7552 357.025 76.5424C386.38 91.2199 401.797 105.075 401.797 137.126C401.797 153.718 392.203 168.502 392.203 185.984C392.203 203.632 405.425 207.686 420.274 212.989C443.154 221.16 466.945 243.389 481.391 261.847C494.818 279.004 497.736 293.3 497.736 314.435C497.736 344.122 504.762 385.129 491.34 411.973C472.614 449.425 447.557 479.708 404.995 491.212C386.618 496.178 375.005 503.293 355.426 503.293C339.918 503.293 322.556 503.75 307.812 498.318C281.345 488.567 282.442 436.136 253.98 436.136H190.731C174.829 436.136 139.564 442.062 139.564 419.968C139.564 408.509 135.151 392.914 131.569 381.77C126.348 365.526 127.255 358.935 113.27 349.791C101.195 341.895 91.6969 330.838 78.8026 324.207C51.2948 310.06 38.2636 279.185 10.0464 266.644C-19.7526 253.4 26.3389 168.936 33.3204 154.715C45.9112 129.067 58.5573 108.509 82.3559 92.1769Z" fill="#D4A0A7" fill-opacity="0.4"/>
</svg>
