<svg width="265" height="398" viewBox="0 0 265 398" fill="none" xmlns="http://www.w3.org/2000/svg">
<path d="M28.1429 67.7628C61.0575 25.444 114.462 0.33948 167 0.33948C181 -1.5 199.912 8.6003 207.903 9.54046C212.584 10.0912 226.221 16.1909 229.65 20.0012C235.219 26.1888 233.995 43.281 238.184 51.6588C244.526 64.3434 235.246 98.0007 227.173 108.092C221.401 115.307 218.161 125.857 212.858 133.969C207.226 142.582 194.245 155.366 193.038 165.626C192.142 173.24 185.605 178.694 185.605 187.924C185.605 195.275 184.533 205.296 190.009 210.773C206.398 227.161 230.519 232.838 247.544 249.863C259.531 261.85 264.886 269.114 264.886 287.026C264.886 306.66 263.774 320.02 251.948 336.577C244.191 347.437 238.162 358.589 230.201 369.336C219.329 384.012 191.497 393.279 174.456 395.9C147.476 400.051 116.33 396.038 89.1181 396.038C59.4772 396.038 45.1524 388.709 28.1429 363.968C19.8937 351.969 11.123 340.231 3.3674 328.043C-3.17804 317.757 2.26627 310.535 2.26627 299.276C2.26627 287.368 5.03118 277.118 7.08373 265.829C9.27658 253.768 12.2286 239.428 15.8928 227.702C22.4631 206.677 19.6091 182.498 19.6091 160.533C19.6091 133.872 10.87 89.9709 28.1429 67.7628Z" fill="#A6B3B8" fill-opacity="0.5"/>
</svg>
