<svg width="41" height="41" viewBox="0 0 41 41" fill="none" xmlns="http://www.w3.org/2000/svg">
<path d="M19.1427 30.8277C19.3212 31.0061 19.5331 31.1477 19.7662 31.2443C19.9994 31.3409 20.2493 31.3906 20.5017 31.3906C20.7541 31.3906 21.004 31.3409 21.2372 31.2443C21.4704 31.1477 21.6823 31.0061 21.8607 30.8277L29.1085 23.5799C29.4689 23.2195 29.6714 22.7306 29.6714 22.2209C29.6714 21.7112 29.4689 21.2224 29.1085 20.862C28.7481 20.5015 28.2593 20.2991 27.7496 20.2991C27.2398 20.2991 26.751 20.5015 26.3906 20.862L22.4236 24.8289V3.84375C22.4236 3.33404 22.2211 2.8452 21.8607 2.48478C21.5003 2.12436 21.0114 1.92188 20.5017 1.92188C19.992 1.92188 19.5032 2.12436 19.1428 2.48478C18.7823 2.8452 18.5799 3.33404 18.5799 3.84375V24.8289L14.6129 20.862C14.2524 20.5015 13.7636 20.2991 13.2539 20.2991C12.7442 20.2991 12.2554 20.5015 11.8949 20.862C11.5345 21.2224 11.332 21.7112 11.332 22.2209C11.332 22.7306 11.5345 23.2195 11.8949 23.5799L19.1427 30.8277Z" fill="#7E7E7E"/>
<path d="M37.1562 18.5781C36.6465 18.5781 36.1577 18.7806 35.7973 19.141C35.4369 19.5015 35.2344 19.9903 35.2344 20.5V35.2344H5.76562V20.5C5.76562 19.9903 5.56314 19.5015 5.20272 19.141C4.8423 18.7806 4.35346 18.5781 3.84375 18.5781C3.33404 18.5781 2.8452 18.7806 2.48478 19.141C2.12436 19.5015 1.92188 19.9903 1.92188 20.5V35.875C1.92188 36.7245 2.25935 37.5392 2.86005 38.14C3.46075 38.7407 4.27548 39.0781 5.125 39.0781H35.875C36.7245 39.0781 37.5392 38.7407 38.1399 38.14C38.7407 37.5392 39.0781 36.7245 39.0781 35.875V20.5C39.0781 19.9903 38.8756 19.5015 38.5152 19.141C38.1548 18.7806 37.666 18.5781 37.1562 18.5781Z" fill="#7E7E7E"/>
</svg>
