<svg width="41" height="41" viewBox="0 0 41 41" fill="none" xmlns="http://www.w3.org/2000/svg">
<g clip-path="url(#clip0)">
<path d="M26.5625 20.2417L40.0716 28.7819V11.3408L26.5625 20.2417Z" fill="#7E7E7E"/>
<path d="M0 11.3408V28.7819L13.5091 20.2417L0 11.3408Z" fill="#7E7E7E"/>
<path d="M37.568 6.26074H2.5055C1.25577 6.26074 0.264007 7.1924 0.0761719 8.39204L20.0368 21.543L39.9973 8.39204C39.8095 7.1924 38.8177 6.26074 37.568 6.26074Z" fill="#7E7E7E"/>
<path d="M24.2682 21.7535L20.7244 24.0876C20.514 24.2254 20.2761 24.293 20.0356 24.293C19.7952 24.293 19.5573 24.2254 19.3469 24.0876L15.8031 21.751L0.0800781 31.6962C0.272922 32.8858 1.25968 33.81 2.5044 33.81H37.5669C38.8116 33.81 39.7984 32.8858 39.9912 31.6962L24.2682 21.7535Z" fill="#7E7E7E"/>
</g>
<defs>
<clipPath id="clip0">
<rect width="40.0714" height="40.0714" fill="white"/>
</clipPath>
</defs>
</svg>
