<svg width="454" height="552" viewBox="0 0 454 552" fill="none" xmlns="http://www.w3.org/2000/svg">
<path d="M121.707 2.73337C162.179 -1.76347 205.357 2.58951 246.003 2.58951C264.713 2.58951 280.765 0 299.088 0C327.537 0 341.668 26.7778 366.272 33.8075C375.398 36.4149 387.356 47.827 396.195 53.2288C413.028 63.5155 415.257 75.3074 424.68 91.2083C430.193 100.512 431.127 113.976 433.743 124.44C441.995 157.449 453.164 193.785 453.164 227.877C453.164 264.02 420.66 287.798 408.136 319.805C402.954 333.047 401.788 350.929 405.978 364.546C411.735 383.257 411.734 401.593 411.732 421.027L411.732 421.946C411.732 433.217 397.752 446.224 392.311 455.898C384.269 470.194 378.796 492.718 367.135 504.379C344.021 527.493 321.317 551.566 286.86 551.566C262.77 551.566 238.434 552.164 214.929 545.811C196.361 540.793 196.653 532.614 185.15 519.341C160.18 490.529 123.721 475.895 97.1066 449.28C76.9218 429.095 59.5587 396.762 59.5587 367.71C59.5587 333.062 62.1483 298.347 62.1483 264.13C62.1483 238.575 76.2992 217.654 66.1764 191.624C60.4996 177.026 51.732 159.619 41.4322 147.602C34.2104 139.177 29.1152 128.897 21.867 120.268C12.957 109.661 0 97.5596 0 83.0082C0 44.6778 20.0997 39.5804 51.7902 25.3197C72.6656 15.9257 98.9281 5.26436 121.707 2.73337Z" fill="#CAC1BB" fill-opacity="0.5"/>
</svg>
