<svg width="36" height="36" viewBox="0 0 36 36" fill="none" xmlns="http://www.w3.org/2000/svg">
<g clip-path="url(#clip0)">
<path d="M1.46006 34.1564H6.10112C6.7414 34.1564 7.2604 33.6373 7.2604 32.997V12.711C7.2604 12.0707 6.7414 11.5518 6.10112 11.5518H1.46006C0.819712 11.5518 0.300781 12.0707 0.300781 12.711V32.997C0.300781 33.6372 0.819712 34.1564 1.46006 34.1564Z" fill="#7E7E7E"/>
<path d="M1.46006 7.98477H6.10112C6.7414 7.98477 7.2604 7.46577 7.2604 6.82549V2.7042C7.2604 2.06392 6.7414 1.54492 6.10112 1.54492H1.46006C0.819712 1.54492 0.300781 2.06392 0.300781 2.7042V6.82549C0.300781 7.46577 0.819712 7.98477 1.46006 7.98477Z" fill="#7E7E7E"/>
<path d="M34.2544 13.9035C33.6022 13.045 32.6405 12.3391 31.369 11.7857C30.0975 11.2327 28.694 10.9561 27.1584 10.9561C24.041 10.9561 21.3995 12.1458 19.234 14.5256C18.8031 14.9991 18.4898 14.8956 18.4898 14.2553V12.7098C18.4898 12.0695 17.9707 11.5505 17.3304 11.5505H13.1847C12.5443 11.5505 12.0254 12.0695 12.0254 12.7098V32.9958C12.0254 33.6361 12.5444 34.1551 13.1847 34.1551H17.8257C18.4661 34.1551 18.985 33.6361 18.985 32.9958V25.9409C18.985 23.0018 19.1625 20.9872 19.5174 19.8975C19.8723 18.8078 20.5288 17.9327 21.4865 17.2722C22.4442 16.6117 23.5256 16.2813 24.7312 16.2813C25.6723 16.2813 26.4773 16.5125 27.1461 16.975C27.8149 17.4374 28.2979 18.0852 28.5951 18.9192C28.8925 19.7531 29.041 21.59 29.041 24.4302V32.9957C29.041 33.636 29.56 34.1551 30.2003 34.1551H34.8413C35.4816 34.1551 36.0005 33.636 36.0005 32.9957V21.5074C36.0005 19.4766 35.8725 17.9161 35.6168 16.8264C35.3611 15.7367 34.9069 14.7624 34.2544 13.9035Z" fill="#7E7E7E"/>
</g>
<defs>
<clipPath id="clip0">
<rect width="35.7" height="35.7" fill="white" transform="translate(0.300781)"/>
</clipPath>
</defs>
</svg>
