<svg width="772" height="826" viewBox="0 0 772 826" fill="none" xmlns="http://www.w3.org/2000/svg">
<path d="M233.496 546.242C239.16 546.242 245.898 546.145 253.711 545.949C261.523 545.754 269.922 544.68 278.906 542.727C287.891 540.773 297.266 537.648 307.031 533.352C316.797 529.055 326.465 522.902 336.035 514.895C345.801 506.691 355.273 496.242 364.453 483.547C373.633 470.852 382.129 455.129 389.941 436.379L399.609 439.895C391.602 459.035 382.91 475.246 373.535 488.527C364.355 501.613 354.785 512.551 344.824 521.34C335.059 529.934 325.195 536.672 315.234 541.555C305.273 546.438 295.605 549.953 286.23 552.102C276.855 554.445 267.969 555.812 259.57 556.203C251.367 556.789 244.043 557.082 237.598 557.082C231.738 557.082 224.219 556.789 215.039 556.203C206.055 555.812 196.094 554.641 185.156 552.688C174.219 550.734 162.695 547.805 150.586 543.898C138.672 539.992 126.855 534.719 115.137 528.078C103.418 521.242 92.2852 512.844 81.7383 502.883C71.1914 492.727 61.9141 480.52 53.9062 466.262C45.8984 451.809 39.4531 435.012 34.5703 415.871C29.8828 396.73 27.5391 374.758 27.5391 349.953C27.5391 318.508 31.1523 291.262 38.3789 268.215C45.6055 244.973 55.1758 225.246 67.0898 209.035C79.1992 192.629 92.9688 179.25 108.398 168.898C123.828 158.352 139.648 150.148 155.859 144.289C172.07 138.234 188.086 134.035 203.906 131.691C219.727 129.348 233.984 128.078 246.68 127.883H250.781C275 127.883 296.973 131.203 316.699 137.844C336.621 144.289 353.613 152.98 367.676 163.918C381.934 174.855 392.871 187.355 400.488 201.418C408.301 215.48 412.207 230.031 412.207 245.07C412.207 252.297 410.84 259.035 408.105 265.285C405.371 271.34 401.758 276.613 397.266 281.105C392.969 285.598 387.891 289.113 382.031 291.652C376.172 294.191 370.215 295.461 364.16 295.461C357.91 295.266 351.562 293.703 345.117 290.773C338.867 287.844 333.105 283.742 327.832 278.469C322.559 273.195 317.969 266.75 314.062 259.133C310.352 251.516 307.91 243.02 306.738 233.645L304.688 219.875C303.516 211.086 301.953 202.004 300 192.629C298.047 183.059 295.02 174.27 290.918 166.262C287.012 158.254 281.836 151.711 275.391 146.633C268.945 141.359 260.742 138.723 250.781 138.723H247.266C239.062 139.309 230.664 141.359 222.07 144.875C213.477 148.195 205.078 153.469 196.875 160.695C188.867 167.727 181.152 176.809 173.73 187.941C166.504 198.879 160.156 212.16 154.688 227.785C149.219 243.215 144.824 261.281 141.504 281.984C138.379 302.492 136.816 325.734 136.816 351.711C136.816 377.883 138.184 400.832 140.918 420.559C143.848 440.09 147.656 457.082 152.344 471.535C157.227 485.793 162.793 497.707 169.043 507.277C175.488 516.652 182.129 524.172 188.965 529.836C195.996 535.5 203.027 539.602 210.059 542.141C217.09 544.68 223.828 546.047 230.273 546.242H233.496Z" fill="#7E7E7E"/>
<path d="M471.402 471.504C501.676 474.824 527.359 480.391 548.453 488.203C569.547 496.016 586.637 505.391 599.723 516.328C613.004 527.07 622.574 539.082 628.434 552.363C634.488 565.449 637.516 579.121 637.516 593.379C637.516 609.785 634.879 624.238 629.605 636.738C624.332 649.238 617.301 660.273 608.512 669.844C599.918 679.219 589.957 687.129 578.629 693.574C567.496 700.02 555.973 705.195 544.059 709.102C532.34 713.203 520.719 716.133 509.195 717.891C497.672 719.844 487.32 720.918 478.141 721.113H470.816C461.051 720.918 449.82 720.039 437.125 718.477C424.625 717.109 411.734 714.863 398.453 711.738C385.367 708.613 372.477 704.609 359.781 699.727C347.086 694.648 335.758 688.398 325.797 680.977C315.836 673.555 307.828 664.766 301.773 654.609C295.719 644.453 292.691 632.637 292.691 619.16C292.691 611.934 293.863 605.586 296.207 600.117C298.551 594.648 301.773 590.059 305.875 586.348C309.977 582.441 314.664 579.414 319.938 577.266C325.406 575.117 331.266 573.848 337.516 573.457C345.133 573.457 352.164 575.117 358.609 578.438C365.25 581.562 371.012 586.055 375.895 591.914C380.777 597.578 384.684 604.512 387.613 612.715C390.738 620.723 392.496 629.707 392.887 639.668C393.277 647.676 395.133 655.879 398.453 664.277C401.773 672.676 406.656 680.293 413.102 687.129C419.547 693.965 427.555 699.531 437.125 703.828C446.695 708.125 457.926 710.273 470.816 710.273C480.973 710.273 490.152 708.223 498.355 704.121C506.754 700.02 513.883 694.551 519.742 687.715C525.602 680.879 530.094 672.969 533.219 663.984C536.344 654.805 537.906 645.234 537.906 635.273C537.906 626.289 536.344 617.402 533.219 608.613C530.094 599.824 525.211 592.012 518.57 585.176C511.93 578.145 503.434 572.383 493.082 567.891C482.73 563.398 470.328 560.859 455.875 560.273C426.383 558.906 401.188 554.512 380.289 547.09C359.586 539.668 342.594 530.098 329.312 518.379C316.031 506.465 306.266 492.891 300.016 477.656C293.961 462.422 290.934 446.406 290.934 429.609C290.934 411.445 293.668 395.527 299.137 381.855C304.605 367.988 311.832 356.074 320.816 346.113C329.996 335.957 340.445 327.559 352.164 320.918C363.883 314.082 375.992 308.613 388.492 304.512C401.188 300.41 413.688 297.578 425.992 296.016C438.492 294.258 450.016 293.379 460.562 293.379H464.078C473.844 293.574 484.684 294.453 496.598 296.016C508.707 297.383 520.914 299.629 533.219 302.754C545.719 305.879 557.73 309.98 569.254 315.059C580.973 320.137 591.324 326.387 600.309 333.809C609.488 341.23 616.812 350.02 622.281 360.176C627.75 370.137 630.484 381.66 630.484 394.746C630.484 402.363 629.215 409.004 626.676 414.668C624.137 420.332 620.719 425.117 616.422 429.023C612.32 432.734 607.438 435.566 601.773 437.52C596.109 439.473 590.25 440.449 584.195 440.449C576.773 440.449 569.84 438.789 563.395 435.469C556.949 432.148 551.285 427.559 546.402 421.699C541.715 415.84 537.906 408.906 534.977 400.898C532.242 392.695 530.875 383.711 530.875 373.945C530.875 365.547 529.801 357.246 527.652 349.043C525.504 340.84 521.793 333.516 516.52 327.07C511.441 320.43 504.605 315.059 496.012 310.957C487.418 306.855 476.773 304.609 464.078 304.219H461.148C451.578 304.609 442.691 307.441 434.488 312.715C426.48 317.793 419.547 324.531 413.688 332.93C407.828 341.328 403.238 350.801 399.918 361.348C396.793 371.699 395.23 382.246 395.23 392.988C395.23 402.363 396.598 411.445 399.332 420.234C402.262 429.023 406.754 437.031 412.809 444.258C419.059 451.289 426.969 457.246 436.539 462.129C446.109 467.012 457.73 470.137 471.402 471.504Z" fill="#7E7E7E"/>
</svg>
