<svg width="500" height="464" viewBox="0 0 500 464" fill="none" xmlns="http://www.w3.org/2000/svg">
<path d="M82.3559 52.1769C102.269 38.5109 116.874 29.5012 136.366 15.578C151.341 8.09058 168.441 10.0492 185.934 6.1618C209.114 1.01066 247.533 -2.56429 270.68 6.69479C298.352 17.7633 329.451 22.7552 357.025 36.5424C386.38 51.2199 401.797 65.0749 401.797 97.1261C401.797 113.718 392.203 128.502 392.203 145.984C392.203 163.632 405.425 167.686 420.274 172.989C443.154 181.16 466.945 203.389 481.391 221.847C494.818 239.004 497.736 253.3 497.736 274.435C497.736 304.122 504.762 345.129 491.34 371.973C472.614 409.425 447.557 439.708 404.995 451.212C386.618 456.178 375.005 463.293 355.426 463.293C339.918 463.293 322.556 463.75 307.812 458.318C281.345 448.567 282.442 396.136 253.98 396.136H190.731C174.829 396.136 139.564 402.062 139.564 379.968C139.564 368.509 135.151 352.914 131.569 341.77C126.348 325.526 127.255 318.935 113.27 309.791C101.195 301.895 91.6969 290.838 78.8026 284.207C51.2948 270.06 38.2636 239.185 10.0464 226.644C-19.7526 213.4 26.3389 128.936 33.3204 114.715C45.9112 89.0671 58.5573 68.5093 82.3559 52.1769Z" fill="#D4A0A7" fill-opacity="0.4"/>
</svg>
