<svg width="575" height="371" viewBox="0 0 575 371" fill="none" xmlns="http://www.w3.org/2000/svg">
<path d="M91.2891 260.335C91.2891 271.991 100.749 281.451 112.405 281.451H123.095C134.751 281.451 144.211 271.991 144.211 260.335V242.528H91.2891V260.335Z" fill="#FFFFE7"/>
<path d="M138.735 256.879C138.735 268.535 129.275 277.995 117.619 277.995H106.929C103.942 277.995 101.101 277.38 98.5234 276.238C102.243 279.489 107.105 281.451 112.406 281.451H123.096C134.752 281.451 144.212 271.991 144.212 260.335V242.528H138.735V256.879Z" fill="#EDECD6"/>
<path d="M69.0314 285.669H166.47C169.575 285.669 172.093 283.15 172.093 280.046H63.3789C63.3789 283.121 65.9269 285.669 69.0314 285.669Z" fill="#FFFFE7"/>
<path d="M166.468 282.828H69.0294C66.95 282.828 65.1342 281.686 64.1677 280.017H63.4062C63.4062 283.121 65.925 285.64 69.0294 285.64H166.468C169.573 285.64 172.091 283.121 172.091 280.017H171.33C170.364 281.715 168.548 282.828 166.468 282.828Z" fill="#EDECD6"/>
<path d="M85.8414 249.177H91.2889C93.134 249.177 94.6276 247.683 94.6276 245.838C94.6276 243.993 93.134 242.499 91.2889 242.499H85.8414C81.9169 242.499 78.6953 245.691 78.6953 249.645V253.511C78.6953 260.042 84.0256 265.372 90.5567 265.372H91.2889C93.134 265.372 94.6276 263.879 94.6276 262.034C94.6276 260.189 93.134 258.695 91.2889 258.695H90.5567C87.6865 258.695 85.3435 256.352 85.3435 253.482V249.616C85.3435 249.411 85.5778 249.177 85.8414 249.177Z" fill="#FFFFE7"/>
<path d="M563.576 285.669H11.2463C5.03742 285.669 0 291.38 0 298.409C0 305.438 5.03742 311.149 11.2463 311.149H563.576C569.785 311.149 574.822 305.438 574.822 298.409C574.851 291.351 569.814 285.669 563.576 285.669Z" fill="#D59E4C"/>
<path d="M556.693 311.12H18.1289V370.222H556.693V311.12Z" fill="#CABFA3"/>
<path d="M556.693 311.12H18.1289V319.613H556.693V311.12Z" fill="#968E7C"/>
<path d="M563.576 285.669H11.2463C5.03742 285.669 0 291.38 0 298.409C0 300.313 0.380735 302.099 1.02506 303.739C1.02506 303.71 1.02506 303.681 1.02506 303.651C1.02506 296.622 6.06247 290.911 12.2714 290.911H564.601C569.14 290.911 573.036 293.957 574.822 298.321C574.793 291.321 569.785 285.669 563.576 285.669Z" fill="#FFCE7F"/>
<path d="M299.638 124.911H272.723V161.55H299.638V124.911Z" fill="#EEC19C"/>
<path d="M337.799 94.4515C337.799 94.4515 334.899 88.799 333.728 96.648C332.556 104.497 342.631 109.3 342.631 109.3C335.778 101.598 337.799 94.4515 337.799 94.4515Z" fill="#AB8964"/>
<path d="M286.926 15.4941C258.4 15.4941 232.246 34.0916 232.246 67.5377C232.246 85.1687 240.769 102.595 252.337 115.54C270.349 135.689 303.502 135.689 321.514 115.54C333.082 102.595 341.605 85.1394 341.605 67.5377C341.634 34.0916 315.451 15.4941 286.926 15.4941Z" fill="#EEC19C"/>
<path d="M339.585 94.451C347.123 94.451 353.233 88.3407 353.233 80.8032C353.233 73.2656 347.123 67.1553 339.585 67.1553C332.048 67.1553 325.938 73.2656 325.938 80.8032C325.938 88.3407 332.048 94.451 339.585 94.451Z" fill="#EEC19C"/>
<path d="M234.296 94.451C241.834 94.451 247.944 88.3407 247.944 80.8032C247.944 73.2656 241.834 67.1553 234.296 67.1553C226.759 67.1553 220.648 73.2656 220.648 80.8032C220.648 88.3407 226.759 94.451 234.296 94.451Z" fill="#EEC19C"/>
<path d="M328.222 18.7439C328.193 18.7146 328.163 18.6853 328.134 18.656C318.967 8.93263 307.194 2.69444 294.424 0.702903C294.337 0.673615 294.219 0.673622 294.132 0.673622C293.253 0.527186 292.345 0.410033 291.437 0.322171C291.086 0.292884 290.734 0.2636 290.353 0.234313C289.709 0.175738 289.065 0.117164 288.421 0.0878762C287.425 0.0293016 286.4 0 285.375 0C284.525 0 283.676 0.0292909 282.856 0.0585782C282.563 0.0585782 282.241 0.0878762 281.948 0.0878762C281.304 0.117164 280.689 0.175738 280.044 0.234313C279.517 0.292887 278.961 0.351455 278.434 0.41003H278.404C248.795 3.98308 224.106 30.1659 223.373 69.821C220.591 97.556 237.168 130.651 237.168 130.651C227.298 106.518 236.055 75.0341 236.055 75.0341C238.632 70.0845 243.142 66.3943 248.531 64.8714C257.347 62.3527 266.601 58.9846 275.944 54.738C285.726 50.2863 291.503 55.7424 299.498 50.5C314.405 67.5159 334.431 68.0344 347.376 69.9088C347.054 48.4119 339.644 30.8981 328.222 18.7439Z" fill="#AB8964"/>
<path d="M298.407 142.923C293.018 153.877 277.057 152.969 273.044 141.429C272.927 141.049 272.839 140.814 272.839 140.727L223.109 155.956V281.13H286.165H350.743V156.425L299.491 140.727L298.407 142.923Z" fill="#607E69"/>
<path d="M235.177 237.724H180.527C180.146 237.724 179.414 237.724 178.975 236.729C178.711 236.114 178.77 235.674 178.916 235.381L237.374 184.392C244.198 178.447 244.901 168.079 238.955 161.255C233.01 154.431 222.642 153.728 215.818 159.674L156.189 211.659C155.662 212.127 155.164 212.625 154.696 213.123C145.558 223.432 143.391 237.607 149.043 250.171C154.696 262.736 166.762 270.526 180.527 270.526H235.177C244.227 270.526 251.578 263.175 251.578 254.125C251.578 245.046 244.256 237.724 235.177 237.724Z" fill="#EEC19C"/>
<path d="M215.82 159.644L171.977 197.893C175.55 206.328 182.461 216.139 195.846 220.591L237.375 184.391C244.199 178.446 244.902 168.078 238.957 161.254C233.011 154.401 222.644 153.698 215.82 159.644Z" fill="#607E69"/>
<path d="M417.666 211.629L358.037 159.644C351.213 153.699 340.845 154.402 334.9 161.226C328.955 168.05 329.658 178.418 336.482 184.363L394.939 235.352C395.086 235.674 395.144 236.114 394.881 236.699C394.441 237.695 393.709 237.695 393.328 237.695H338.678C329.628 237.695 322.277 245.046 322.277 254.096C322.277 263.146 329.628 270.497 338.678 270.497H393.328C407.093 270.497 419.16 262.706 424.812 250.142C430.465 237.578 428.297 223.403 419.16 213.094C418.691 212.596 418.193 212.098 417.666 211.629Z" fill="#EEC19C"/>
<path d="M334.931 161.226C328.985 168.05 329.688 178.417 336.512 184.363L378.041 220.562C391.426 216.11 398.367 206.299 401.911 197.864L358.067 159.615C351.244 153.699 340.876 154.402 334.931 161.226Z" fill="#607E69"/>
<path d="M384.247 156.512H190.57C186.821 156.512 183.746 159.558 183.746 163.336V285.669H391.042V163.336C391.071 159.558 388.025 156.512 384.247 156.512Z" fill="#FFFFE7"/>
<path d="M183.773 255.122V285.669H391.069V183.456L183.773 255.122Z" fill="#EDECD6"/>
<path d="M287.422 231.224C293.019 231.224 297.556 226.687 297.556 221.09C297.556 215.494 293.019 210.957 287.422 210.957C281.826 210.957 277.289 215.494 277.289 221.09C277.289 226.687 281.826 231.224 287.422 231.224Z" fill="#8D978F"/>
<path d="M295.943 216.669C295.943 222.262 291.404 226.802 285.81 226.802C282.295 226.802 279.191 225.015 277.375 222.292C277.961 227.329 282.266 231.224 287.45 231.224C293.044 231.224 297.583 226.685 297.583 221.091C297.583 219.012 296.968 217.079 295.885 215.468C295.914 215.849 295.943 216.259 295.943 216.669Z" fill="#7E8780"/>
<path d="M514.84 136.838L471.777 279.645L480.301 282.215L523.364 139.409L514.84 136.838Z" fill="#89968C"/>
<path d="M453.399 54.5072L446.594 60.249L516.194 142.735L522.999 136.993L453.399 54.5072Z" fill="#89968C"/>
<path d="M518.091 146.26C522.232 146.26 525.589 142.903 525.589 138.762C525.589 134.621 522.232 131.265 518.091 131.265C513.951 131.265 510.594 134.621 510.594 138.762C510.594 142.903 513.951 146.26 518.091 146.26Z" fill="#97A098"/>
<path d="M511.645 147.46C513.021 148.954 514.983 149.891 517.15 149.891C518.322 149.891 519.435 149.598 520.431 149.13L523.359 139.406L514.837 136.829L511.645 147.46Z" fill="#717F74"/>
<path d="M423.636 23.8104C423.255 23.3418 422.523 23.2832 422.054 23.664L421.732 23.9276C421.264 24.3083 421.205 25.0405 421.586 25.5091L452.103 62.2061C452.484 62.6747 453.216 62.7332 453.685 62.3525L454.007 62.0889C454.476 61.7082 454.534 60.976 454.153 60.5074L423.636 23.8104Z" fill="#B6BAB6"/>
<path d="M422.057 26.0645L380.176 48.0885C378.478 48.9964 378.009 51.2515 379.239 52.7159L398.393 75.765L417.547 98.8141C418.777 100.308 421.091 100.279 422.262 98.7556L451.579 61.6193L436.789 43.8419L422.057 26.0645Z" fill="#9BA59D"/>
<path d="M452.723 53.7725L448.242 57.5505L456.765 67.8011C457.233 68.3575 458.083 68.4454 458.639 67.9768C459.196 67.5082 459.283 66.6589 458.815 66.1024L458.141 65.2824L460.66 63.203L452.723 53.7725Z" fill="#717F74"/>
<path d="M445.93 59.5121L454.569 69.7626L456.444 67.3904L448.273 57.5498L445.93 59.5121Z" fill="#717F74"/>
<path d="M472.609 276.882V277.262H481.806L485.701 264.376H476.387L472.609 276.882Z" fill="#717F74"/>
<path d="M478.404 268.857C460.422 268.857 444.606 275.535 435.527 285.639H521.281C512.202 275.564 496.386 268.857 478.404 268.857Z" fill="#89968C"/>
<path d="M454.156 273.251C459.369 276.443 468.273 278.552 478.377 278.552C488.481 278.552 497.384 276.443 502.597 273.251C495.393 270.439 487.134 268.857 478.377 268.857C469.62 268.857 461.361 270.468 454.156 273.251Z" fill="#A3AFA5"/>
<path d="M518.091 146.26C522.232 146.26 525.589 142.903 525.589 138.762C525.589 134.621 522.232 131.265 518.091 131.265C513.951 131.265 510.594 134.621 510.594 138.762C510.594 142.903 513.951 146.26 518.091 146.26Z" fill="#97A098"/>
<path d="M440.946 25.216C437.109 20.5886 430.256 19.9736 425.629 23.8102L424.457 24.7767L453.334 59.5114L454.506 58.5449C459.133 54.7083 459.748 47.8551 455.912 43.2277L440.946 25.216Z" fill="#89968C"/>
<path d="M425.629 23.8087L424.457 24.7752L431.369 33.0928L432.54 32.1263C435.615 29.549 436.933 25.6538 436.318 21.9636C432.775 20.675 428.704 21.2314 425.629 23.8087Z" fill="#9BA59D"/>
<path d="M422.057 26.0645L380.176 48.0885C378.478 48.9964 378.009 51.2515 379.239 52.7159L398.393 75.765L417.547 98.8141C418.777 100.308 421.091 100.279 422.262 98.7556L451.579 61.6193L436.789 43.8419L422.057 26.0645Z" fill="#9BA59D"/>
<path d="M426.07 26.7694C425.689 26.3008 424.957 26.2422 424.488 26.623L424.166 26.8866C423.697 27.2673 423.639 27.9995 424.019 28.4681L454.537 65.1651C454.918 65.6337 455.65 65.6922 456.118 65.3115L456.44 65.0479C456.909 64.6672 456.968 63.935 456.587 63.4664L426.07 26.7694Z" fill="#B6BAB6"/>
<path d="M378.742 51.7491C378.859 52.1006 379.035 52.4227 379.269 52.7156L398.423 75.7647L417.577 98.8139C418.807 100.308 421.121 100.278 422.292 98.7553L451.58 61.6483L428.765 34.2061L378.742 51.7491Z" fill="#8F9991"/>
<path d="M447.335 247.067H427.654H408.852C407.241 247.067 406.04 248.502 406.333 250.084L412.776 285.639H427.654H442.532L449.122 249.205C449.298 248.092 448.448 247.067 447.335 247.067Z" fill="#A07457"/>
<path d="M407.942 247.067C406.8 247.067 405.951 248.092 406.156 249.205L412.277 283.061H423.992H435.414C437.405 283.061 439.133 281.626 439.485 279.664L445.371 247.097H427.623H407.942V247.067Z" fill="#B78B68"/>
<path d="M427.709 187.291C423.755 190.395 421.207 195.199 421.207 200.617C421.207 206.035 423.755 210.838 427.709 213.942C431.663 210.838 434.211 206.035 434.211 200.617C434.211 195.199 431.663 190.366 427.709 187.291Z" fill="#7D966C"/>
<path d="M427.709 211.425C424.048 208.584 421.617 204.249 421.266 199.358C421.236 199.768 421.207 200.178 421.207 200.588C421.207 206.007 423.755 210.81 427.709 213.914C431.663 210.81 434.211 206.007 434.211 200.588C434.211 200.178 434.181 199.768 434.152 199.358C433.801 204.249 431.34 208.584 427.709 211.425Z" fill="#667C55"/>
<path d="M434.213 214.939C430.552 217.546 428.502 221.558 428.297 225.717C432.28 226.918 436.761 226.332 440.422 223.725C444.083 221.119 446.133 217.106 446.338 212.947C442.355 211.776 437.874 212.362 434.213 214.939Z" fill="#7D966C"/>
<path d="M440.539 221.82C437.054 224.925 432.573 226.155 428.297 225.657C428.297 225.686 428.297 225.686 428.297 225.716C432.28 226.916 436.761 226.331 440.422 223.724C444.083 221.117 446.133 217.105 446.338 212.946C446.104 212.888 445.869 212.8 445.606 212.741C445.02 216.139 443.321 219.36 440.539 221.82Z" fill="#667C55"/>
<path d="M435.941 231.778C431.782 233.447 428.853 236.903 427.711 240.916C431.313 242.995 435.824 243.464 439.982 241.794C444.141 240.125 447.07 236.669 448.212 232.657C444.58 230.577 440.099 230.109 435.941 231.778Z" fill="#7D966C"/>
<path d="M440.539 239.949C436.439 242.145 431.782 242.35 427.74 240.857C427.74 240.886 427.74 240.886 427.711 240.915C431.313 242.995 435.824 243.463 439.982 241.794C444.141 240.124 447.07 236.668 448.212 232.656C448.007 232.539 447.773 232.422 447.538 232.305C446.191 235.468 443.79 238.191 440.539 239.949Z" fill="#667C55"/>
<path d="M421.062 214.938C417.402 212.331 412.921 211.774 408.938 212.946C409.143 217.105 411.163 221.146 414.854 223.724C418.514 226.33 422.995 226.887 426.978 225.715C426.773 221.556 424.723 217.544 421.062 214.938Z" fill="#7D966C"/>
<path d="M414.709 221.82C411.927 219.36 410.257 216.139 409.642 212.771C409.408 212.829 409.144 212.888 408.91 212.976C409.115 217.134 411.136 221.176 414.826 223.753C418.487 226.36 422.968 226.916 426.951 225.745C426.951 225.716 426.951 225.715 426.951 225.686C422.675 226.155 418.194 224.925 414.709 221.82Z" fill="#667C55"/>
<path d="M419.334 231.778C415.175 230.109 410.665 230.577 407.062 232.657C408.205 236.669 411.133 240.096 415.292 241.794C419.451 243.464 423.961 242.995 427.564 240.916C426.392 236.903 423.493 233.477 419.334 231.778Z" fill="#7D966C"/>
<path d="M414.736 239.949C411.485 238.191 409.083 235.468 407.736 232.305C407.502 232.422 407.297 232.539 407.062 232.656C408.205 236.668 411.133 240.095 415.292 241.794C419.451 243.463 423.961 242.995 427.564 240.915C427.564 240.886 427.564 240.886 427.534 240.857C423.493 242.35 418.836 242.145 414.736 239.949Z" fill="#667C55"/>
<path d="M428.708 211.774H426.746V247.066H428.708V211.774Z" fill="#667C55"/>
</svg>
